HIERARCHY
ROOT Hips
{
  OFFSET 57.7256 91.6981 22.7156
  CHANNELS 6 Xposition Yposition Zposition Zrotation Xrotation Yrotation
  JOINT ToSpine
  {
    OFFSET -2.69724 7.43032 -0.144315
    CHANNELS 3 Zrotation Xrotation Yrotation
    JOINT Spine
    {
      OFFSET -0.0310711 10.7595 1.96963
      CHANNELS 3 Zrotation Xrotation Yrotation
      JOINT Spine1
      {
        OFFSET 19.9056 3.91189 0.764692
        CHANNELS 3 Zrotation Xrotation Yrotation
        JOINT Neck
        {
          OFFSET 25.9749 7.03908 -0.130764
          CHANNELS 3 Zrotation Xrotation Yrotation
          JOINT Head
          {
            OFFSET 9.52751 0.295786 -0.907742
            CHANNELS 3 Zrotation Xrotation Yrotation
            End Site
            {
              OFFSET 16.4037 0.713936 2.7358
            }
          }
        }
        JOINT LeftShoulder
        {
          OFFSET 17.7449 4.33886 11.7777
          CHANNELS 3 Zrotation Xrotation Yrotation
          JOINT LeftArm
          {
            OFFSET 0.911315 1.27913 9.80584
            CHANNELS 3 Zrotation Xrotation Yrotation
            JOINT LeftForeArm
            {
              OFFSET 28.6126 1.18197 -3.53199
              CHANNELS 3 Zrotation Xrotation Yrotation
              JOINT LeftHand
              {
                OFFSET 27.5088 0.0218783 0.327423
                CHANNELS 3 Zrotation Xrotation Yrotation
                End Site
                {
                  OFFSET 18.6038 -0.000155887 0.382096
                }
              }
            }
          }
        }
        JOINT RightShoulder
        {
          OFFSET 17.1009 2.89543 -12.2328
          CHANNELS 3 Zrotation Xrotation Yrotation
          JOINT RightArm
          {
            OFFSET 1.4228 0.178766 -10.211
            CHANNELS 3 Zrotation Xrotation Yrotation
            JOINT RightForeArm
            {
              OFFSET 28.733 1.87905 2.64907
              CHANNELS 3 Zrotation Xrotation Yrotation
              JOINT RightHand
              {
                OFFSET 27.4588 0.290562 -0.101845
                CHANNELS 3 Zrotation Xrotation Yrotation
                End Site
                {
                  OFFSET 17.8396 -0.255518 -0.000602873
                }
              }
            }
          }
        }
      }
    }
  }
  JOINT LeftUpLeg
  {
    OFFSET -5.61296 -2.22332 -10.2353
    CHANNELS 3 Zrotation Xrotation Yrotation
    JOINT LeftLeg
    {
      OFFSET 2.56703 -44.7417 -7.93097
      CHANNELS 3 Zrotation Xrotation Yrotation
      JOINT LeftFoot
      {
        OFFSET 3.16933 -46.5642 -3.96578
        CHANNELS 3 Zrotation Xrotation Yrotation
        JOINT LeftToeBase
        {
          OFFSET 0.346054 -6.02161 12.8035
          CHANNELS 3 Zrotation Xrotation Yrotation
          End Site
          {
            OFFSET 0.134235 -1.35082 5.13018
          }
        }
      }
    }
  }
  JOINT RightUpLeg
  {
    OFFSET -5.7928 -1.72406 10.6446
    CHANNELS 3 Zrotation Xrotation Yrotation
    JOINT RightLeg
    {
      OFFSET -2.57161 -44.7178 -7.85259
      CHANNELS 3 Zrotation Xrotation Yrotation
      JOINT RightFoot
      {
        OFFSET -3.10148 -46.5936 -4.03391
        CHANNELS 3 Zrotation Xrotation Yrotation
        JOINT RightToeBase
        {
          OFFSET -0.0828122 -6.13587 12.8035
          CHANNELS 3 Zrotation Xrotation Yrotation
          End Site
          {
            OFFSET -0.131328 -1.35082 5.13018
          }
        }
      }
    }
  }
}
MOTION
Frames:	20
Frame Time:	0.0333333
197.726 93.0712 188.095 -72.8143 42.3706 168.611 -70.1915 0 88.8779 125.316 70.9698 -40.7736 7.26126 22.6966 -0.00492184 -161.075 17.5062 161.231 -139.356 49.5328 153.763 2.81272 0.914453 -27.6626 -41.6689 38.1733 -113.566 5.20702 6.80532 -23.9079 14.622 -0.670029 -3.45252 0.590762 -2.88046 27.8513 -72.775 -52.7832 84.6973 6.57002 -2.64974 59.7305 11.0465 0.275867 2.65897 -26.3072 -10.224 98.0572 -4.22056 57.9642 -2.00857 6.90141 15.4577 -0.756906 -8.12481 -33.2885 8.83561 -64.1141 -2.03169 85.2022 162.33 78.6738 -168.035 -6.56702 4.82713 0.899107 -5.18904 16.0474 0.18829 
187.384 90.8903 177.372 -75.7816 40.497 164.967 -70.1915 0 88.8779 120.853 69.7263 -44.579 6.62547 21.5161 0.486853 -158.54 18.8254 167.544 -149.231 56.1506 171.749 3.12393 1.3327 -30.0337 -49.5203 33.4552 -119.2 4.51491 5.43003 -23.2719 10.7959 -0.32693 -1.73084 0.547908 -2.37309 29.8017 -70.9806 -53.7691 83.2267 10.1381 -6.9892 47.5178 12.1166 0.230862 1.92916 -31.7381 -15.8048 101.536 -6.59711 67.2337 2.49899 9.56966 14.2289 -1.41597 -11.2388 -44.3249 5.32794 -46.0607 -8.13184 91.1787 169.658 63.9992 -173.045 -5.88959 -0.0759684 0.886144 0.38078 10.2945 -8.00158 
175.988 89.9571 165.861 -74.8455 35.3916 165.141 -70.1915 0 88.8779 114.912 68.2284 -38.0415 4.69576 19.1554 -0.0590957 -158.303 19.0673 168.515 -149.968 56.5235 171.85 2.99657 0.757181 -29.7847 -61.2914 35.7549 -123.424 7.64063 10.7421 -26.8904 15.8378 -0.69309 -3.2213 0.582618 -2.56418 29.9834 -71.3278 -56.2604 77.1572 13.3824 -12.192 41.5856 12.8418 0.195541 1.46238 -40.1624 -18.8337 96.7718 -9.4692 70.9159 1.654 7.39836 11.7033 -0.911513 -14.1047 -51.1631 2.2174 -26.4862 -8.82666 92.8135 169.531 63.8909 -171.914 -5.67318 -1.70287 0.895531 4.77036 -0.404991 -12.4397 
163.533 90.8217 152.814 -76.744 34.9013 170.712 -70.1915 0 88.8779 115.902 67.1157 -35.3705 3.45427 18.2952 1.25201 -158.014 19.0601 169.213 -150.066 56.1631 168.499 2.86357 0.584802 -28.7264 -66.8206 38.9939 -124.933 6.71257 6.07839 -37.3549 15.2967 -0.91337 -4.99562 0.579421 -2.61144 29.3849 -67.1201 -58.6469 74.303 11.6311 -11.0945 38.9284 9.39772 0.125327 1.26735 -56.9665 -11.7591 93.9364 -8.61163 68.2305 -2.69962 9.60292 9.98095 -1.37788 -15.2201 -53.3498 1.10769 -18.2552 -5.85797 89.3299 162.643 77.5123 -165.608 -6.51801 -3.1796 1.00766 5.88618 -7.85146 -10.3054 
151.869 93.575 140.704 -76.841 31.8812 176.175 -70.1915 0 88.8779 110.543 65.5411 -27.067 4.36982 15.509 4.71214 -156.601 18.4831 170.24 -151.754 55.9836 170.117 2.88963 1.09664 -28.1394 -68.7298 39.4097 -123.662 9.27496 5.70353 -52.3129 12.633 -0.819898 -5.56851 0.351423 -1.23325 28.316 -63.3912 -60.5127 72.5767 8.91147 -8.08875 37.3235 7.87841 0.122474 1.56449 -66.176 -4.36348 88.5672 -8.10714 66.7371 -5.5866 3.79245 2.53514 -0.471295 -7.36669 -28.8592 4.67648 -16.6856 -5.38649 83.1093 12.0828 77.3306 -11.0462 -6.44101 -4.73516 1.02433 6.54587 -10.7656 -9.90791 
140.046 95.5942 129.685 -77.8293 26.9322 177.477 -70.1915 0 88.8779 104.687 63.7236 -22.1917 6.00947 12.9749 6.14509 -154.356 18.2415 169.086 -151.263 55.6731 169.106 2.86032 1.67315 -26.9848 -70.8689 37.5202 -118.551 16.456 5.95853 -68.3803 12.1197 -1.03542 -7.83575 0.262663 -0.648859 27.7884 -64.9111 -61.1731 67.983 7.27213 -5.86244 37.6878 7.68405 0.159312 2.21469 -70.3111 -7.13888 78.3301 -8.70934 69.5711 -1.04485 2.4961 6.90111 -0.0696334 -6.17965 -22.7433 12.7185 -21.3958 -9.87649 79.12 2.71728 51.545 1.71194 -4.35757 -0.812079 0.72494 5.69916 -15.4056 -1.15229 
128.323 95.267 118.822 -79.3882 26.947 179.613 -70.1915 0 88.8779 104.742 63.908 -18.8129 8.06292 14.0877 3.86816 -150.582 18.5723 166.659 -148.861 55.7444 166.549 2.75619 2.46356 -24.9983 -72.0983 36.1036 -112.683 18.7444 3.14054 -80.2052 14.3002 -1.054 -6.54818 0.227547 -0.405546 27.4038 -68.7039 -61.9713 62.9236 6.45756 -4.65068 38.7837 8.65738 0.109492 1.19242 -69.8981 -7.70811 75.4291 -15.4121 79.1776 14.5594 3.26444 12.0551 0.0138385 -7.61186 -31.871 12.4408 -25.0878 -9.79912 74.9393 1.31451 39.993 -0.917024 -2.33355 1.63312 0.368664 3.55696 -10.9669 0.747312 
116.69 93.5314 107.602 -82.2762 28.3087 -179.697 -70.1915 0 88.8779 107.043 65.6919 -21.1128 8.40292 16.2199 4.36753 -148.169 19.8723 167.914 -150.627 57.7921 169.63 2.68124 2.2927 -24.5281 -75.7578 36.6781 -105.694 15.8183 2.90001 -79.1212 17.8123 -0.747942 -3.01917 0.267128 -0.700832 25.4109 -65.5283 -61.5541 66.9964 5.84909 -3.92673 38.5244 8.33188 0.0572887 0.483201 -65.0343 -7.89937 78.2213 -122.63 85.999 124.358 5.95833 10.9684 -0.609342 -8.17098 -34.3552 10.7911 -27.9948 -10.8169 70.1314 2.51866 45.3083 5.37732 -2.50008 -0.142666 0.478485 -1.28142 -3.23434 6.3709 
105.599 91.322 96.2229 -85.7053 32.7087 -174.141 -70.1915 0 88.8779 119.855 66.3173 -28.3365 8.12244 18.8655 3.94817 -148.949 20.5954 168.791 -150.613 58.4397 169.513 2.77453 2.25629 -25.4149 -81.9112 34.7566 -98.659 15.5716 6.17883 -66.2689 18.3867 -0.339018 -0.392138 0.290408 -0.877741 25.7989 -58.349 -56.9106 78.4367 7.79153 -6.74874 36.7024 9.87592 0.0975345 0.839385 -56.3564 -1.15612 81.2569 -162.603 75.8993 162.678 6.70754 8.56408 -0.802536 -8.75017 -36.9932 10.0965 -31.1205 -1.86807 71.2381 4.64731 57.5026 6.39157 -4.51176 -1.11466 0.752304 4.11806 11.0761 -16.6948 
94.8833 88.9076 85.1416 -88.0014 36.9503 -168.561 -70.1915 0 88.8779 127.124 67.733 -30.1277 10.2876 21.1255 4.27544 -150.528 21.6157 170.345 -149.84 59.3219 170.063 2.88606 1.48047 -27.5112 -83.4932 32.3011 -98.3318 12.6721 10.0505 -46.8817 18.6928 -0.213726 0.390144 0.21987 -0.327104 25.6349 -55.766 -50.7608 89.7408 6.41323 -5.55523 32.8659 9.60215 -0.159507 -2.39826 -43.5097 3.85565 79.8281 -166.394 69.8691 165.145 6.31638 6.30551 -0.765415 -9.25061 -39.2668 9.79855 -33.254 8.05252 72.8946 9.63186 71.1432 0.278216 -5.68537 -2.76575 0.920057 9.22369 -9.03857 -20.811 
83.5443 88.9584 74.2699 -87.4015 35.1504 -167.58 -70.1915 0 88.8779 126.641 67.95 -29.2158 7.69045 20.5529 6.55072 -148.157 22.1167 167.984 -146.295 59.0927 164.734 2.73675 0.739137 -27.1682 -75.5531 31.1322 -100.746 6.82638 7.44748 -32.2311 16.8368 0.0725151 2.13991 0.155714 0.229248 24.677 -57.8353 -48.3839 93.0309 6.82889 -6.07964 33.4252 10.8928 -0.0256095 -0.650692 -30.4441 0.392889 76.4269 -163.25 75.7065 164.39 6.69088 6.32291 -0.830419 -10.0226 -41.4881 7.98846 -42.0456 9.16525 70.3633 13.6056 74.9597 -1.28706 -6.73506 -3.62792 1.03388 11.7024 -24.7049 -17.6578 
72.4985 90.9968 64.4185 -88.3793 34.3876 -174.132 -70.1915 0 88.8779 123.12 69.6208 -32.4904 6.87104 21.5233 4.02381 -146.689 21.7791 165.109 -150.84 59.9879 167.079 2.51044 0.182837 -25.6454 -68.1949 30.4307 -100.447 6.11136 7.6514 -27.2347 10.3762 -0.151177 0.00769569 0.171769 0.123945 24.0831 -58.0574 -49.2505 95.1188 8.05462 -6.8344 37.8765 10.3703 0.351286 3.75336 -25.5142 -6.90001 82.6463 -28.4613 84.4909 34.0841 4.69395 6.32254 -0.482126 -8.69231 -37.6938 11.6786 -49.6312 2.37787 73.8597 23.3829 80.9291 -13.7516 -7.41613 -8.55128 1.12974 6.35428 -8.60296 -11.2171 
62.1656 92.9475 55.7345 -90.2902 38.6371 -178.56 -70.1915 0 88.8779 127.795 70.9983 -39.4504 8.95084 24.468 -2.08713 -147.118 21.5391 163.03 -149.356 59.6926 166.919 2.11653 -1.78587 -24.0691 -65.3872 30.9375 -97.127 7.97063 11.552 -26.5547 6.05504 -0.185448 -1.77186 0.289781 -0.912162 24.2129 -56.8661 -50.4233 98.1453 6.80864 -4.75466 40.993 10.0914 0.508897 5.77483 -27.41 -8.88522 87.2695 -3.94531 62.3593 5.13916 1.71374 10.7644 0.2881 -7.55161 -30.5067 9.05459 -50.8873 -0.321319 82.1831 60.6832 85.7312 -53.6094 -7.29488 -2.53542 1.07581 -3.60327 10.814 0.25003 
52.2851 93.4972 46.1935 -93.393 44.7368 -178.681 -70.1915 0 88.8779 133.772 71.996 -47.087 11.3938 26.4849 -3.89945 -146.865 21.4111 165.289 -150.568 59.5864 167.723 2.10326 -2.08207 -24.4041 -60.0658 30.8938 -96.2611 9.46757 15.3237 -25.3917 2.04744 -0.0890309 -3.02435 0.251068 -0.575925 23.4444 -54.6225 -52.4231 100.318 5.16316 -2.80557 41.8528 10.8994 0.591577 6.20797 -32.5879 -4.57 92.9907 -2.84627 47.9524 -4.04602 2.38763 12.0884 0.211482 -6.88964 -27.4313 12.8815 -49.3396 4.12545 91.2841 125.213 85.6244 -123.234 -6.09181 -1.04348 0.928306 5.03337 -2.3236 -11.9157 
41.789 91.8153 35.7916 -94.2662 47.1891 -178.7 -70.1915 0 88.8779 128.058 72.7741 -43.0688 11.8469 25.7616 -3.52594 -145.909 19.9464 166.62 -149.997 57.6967 166.256 2.07635 -1.63867 -23.2956 -55.1922 32.2023 -96.1047 9.73799 17.4762 -23.339 -3.17682 0.136543 -3.38595 0.238074 -0.462798 24.4475 -53.4273 -54.5821 100 7.16925 -5.15292 41.0937 13.0378 0.559948 4.78125 -33.2509 -1.91326 97.7587 -3.44906 52.3997 -3.23193 0.962029 8.87075 0.32962 -5.55477 -18.4015 12.8891 -43.0544 7.77389 95.6819 150.455 82.5131 -149.906 -6.42125 -2.69325 0.990989 8.12374 -10.1052 -16.1459 
30.0139 89.7412 25.9685 -99.5617 42.5803 -175.835 -70.1915 0 88.8779 125.651 68.1269 -43.2481 9.82028 21.6213 -2.48464 -144.695 18.2208 167.828 -149.172 55.554 165.607 1.92819 -1.9727 -21.811 -63.6221 33.1753 -91.3951 4.63752 29.2039 -17.2298 -6.16066 0.312916 -4.22963 0.233679 -0.430795 25.0622 -54.9842 -58.0589 95.7778 6.1421 -4.18166 39.4018 14.4029 0.531282 4.03125 -39.949 -7.57821 96.984 -4.91674 61.2438 -0.114968 11.4362 18.9938 -1.99267 -8.19474 -34.4994 10.8256 -39.8613 2.70513 94.1897 145.805 83.0552 -142.027 -6.26685 -6.62501 1.04234 9.15719 -13.6577 -17.1853 
19.3367 88.0079 16.472 -98.8436 40.6391 -179.83 -70.1915 0 88.8779 113.617 68.6362 -35.5421 11.2515 19.7045 -1.40741 -146.776 17.5021 169.345 -149.761 54.6794 166.436 2.04805 -1.68119 -22.9882 -87.816 30.0201 -84.1397 -8.37326 52.0308 -1.1753 -3.60314 0.169811 -3.88307 0.379655 -1.49972 26.8904 -60.932 -59.3101 89.1172 4.9802 -2.94415 37.2454 14.9483 0.378251 2.64574 -41.3979 -13.2891 96.5382 -10.721 73.9544 6.10766 8.58901 8.19411 -1.16556 -8.31107 -35.1317 10.8427 -30.9855 -2.30081 95.734 90.2209 86.3677 -85.5373 -6.41828 -8.22283 1.07724 9.34426 -16.5864 -15.1722 
9.21806 88.4238 7.7864 -97.8795 40.3015 -178.763 -70.1915 0 88.8779 113.571 67.2404 -32.6286 9.40481 18.8251 -0.785757 -145.579 17.28 169.427 -148.295 54.018 164.629 2.09114 -1.36292 -23.0635 -94.5611 32.4869 -84.0136 -16.9927 57.4478 11.9987 -0.379184 0.011251 -2.30751 0.443398 -1.89861 27.6013 -62.9446 -61.1589 84.0266 2.0847 1.00518 34.3134 16.4866 0.1109 0.432348 -47.8594 -10.1364 97.7789 -17.4075 78.5455 9.44398 11.5094 17.8616 -1.98267 -13.9828 -53.5766 5.15411 -26.9756 -3.59137 91.4018 9.67016 73.7735 -5.80285 -5.84351 -6.24005 1.00713 8.27134 -13.6433 -13.6251 
0.0176634 89.1862 -1.13539 -97.728 43.0422 -173.641 -70.1915 0 88.8779 118.243 67.0945 -30.8204 9.10261 19.3043 0.771953 -145.056 17.6235 171.168 -150.262 54.6293 165.46 2.27495 -0.880963 -24.6018 -91.6405 35.6234 -85.0301 -12.2116 55.8052 5.49441 3.90914 -0.125341 -1.92015 0.260712 -0.639932 26.9654 -63.1321 -61.621 80.158 0.121242 3.94495 33.8813 12.217 0.129236 0.908207 -48.9049 -0.584705 97.0036 -104.717 85.6032 94.1722 5.60833 1.10908 -0.762587 -6.10762 -22.9181 9.207 -28.6674 1.66781 84.7345 3.34992 55.5197 1.41577 -2.6725 1.06513 0.441792 1.70537 -7.12271 2.13691 
-9.36913 89.4732 -9.82506 -98.7143 38.7898 -171.483 -70.1915 0 88.8779 116.828 65.6815 -29.3018 10.9409 17.3864 2.80646 -145.168 17.3865 169.306 -149.341 54.2183 163.658 2.29992 0.0409149 -23.5494 -74.9666 39.7979 -93.6301 0.728717 45.8016 -12.3024 2.17959 -0.0963152 -3.1066 0.137653 0.25339 26.8035 -61.22 -60.65 80.4042 -0.660442 5.01052 34.3501 11.2317 0.143802 1.18372 -47.8625 -0.667864 91.5122 -146.246 81.9375 137.153 3.69604 4.12096 -0.394831 -5.85232 -20.4945 12.8195 -32.7668 -2.48419 76.111 2.71723 49.7007 2.91197 -1.4054 3.14378 0.154177 -4.09195 -0.316722 10.4613 
